<?xml version="1.0" encoding="iso-8859-1"?>
<!-- Generator: Adobe Illustrator 19.0.0, SVG Export Plug-In . SVG Version: 6.00 Build 0)  -->
<svg version="1.1" id="Capa_1" xmlns="http://www.w3.org/2000/svg" xmlns:xlink="http://www.w3.org/1999/xlink" x="0px" y="0px"
	 viewBox="0 0 512 512" style="enable-background:new 0 0 512 512;" xml:space="preserve">
<g>
	<g>
		<path d="M426.667,0H85.333C55.893,0.035,32.035,23.893,32,53.333v405.333c0.035,29.441,23.893,53.298,53.333,53.333h341.333
			c29.441-0.035,53.298-23.893,53.333-53.333V53.333C479.965,23.893,456.107,0.035,426.667,0z M458.667,458.667
			c0,17.673-14.327,32-32,32H85.333c-17.673,0-32-14.327-32-32V53.333c0-17.673,14.327-32,32-32h341.333c17.673,0,32,14.327,32,32
			V458.667z"/>
	</g>
</g>
<g>
	<g>
		<path d="M106.667,42.667c-17.673,0-32,14.327-32,32c0,17.673,14.327,32,32,32c17.673,0,32-14.327,32-32
			C138.667,56.994,124.34,42.667,106.667,42.667z M106.667,85.333C100.776,85.333,96,80.558,96,74.667
			C96,68.776,100.776,64,106.667,64s10.667,4.776,10.667,10.667C117.333,80.558,112.558,85.333,106.667,85.333z"/>
	</g>
</g>
<g>
	<g>
		<path d="M405.333,42.667c-17.673,0-32,14.327-32,32c0,17.673,14.327,32,32,32s32-14.327,32-32
			C437.333,56.994,423.006,42.667,405.333,42.667z M405.333,85.333c-5.891,0-10.667-4.776-10.667-10.667
			c0-5.891,4.776-10.667,10.667-10.667C411.224,64,416,68.776,416,74.667C416,80.558,411.224,85.333,405.333,85.333z"/>
	</g>
</g>
<g>
	<g>
		<path d="M405.333,405.333c-17.673,0-32,14.327-32,32s14.327,32,32,32s32-14.327,32-32S423.006,405.333,405.333,405.333z
			 M405.333,448c-5.891,0-10.667-4.776-10.667-10.667c0-5.891,4.776-10.667,10.667-10.667c5.891,0,10.667,4.776,10.667,10.667
			C416,443.224,411.224,448,405.333,448z"/>
	</g>
</g>
<g>
	<g>
		<path d="M106.667,405.333c-17.673,0-32,14.327-32,32s14.327,32,32,32c17.673,0,32-14.327,32-32S124.34,405.333,106.667,405.333z
			 M106.667,448C100.776,448,96,443.224,96,437.333c0-5.891,4.776-10.667,10.667-10.667s10.667,4.776,10.667,10.667
			C117.333,443.224,112.558,448,106.667,448z"/>
	</g>
</g>
<g>
	<g>
		<path d="M341.333,117.333H170.667c-11.782,0-21.333,9.551-21.333,21.333V288h21.333V138.667h170.667v234.667H288v21.333h53.333
			c11.782,0,21.333-9.551,21.333-21.333V138.667C362.667,126.885,353.115,117.333,341.333,117.333z"/>
	</g>
</g>
<g>
	<g>
		<path d="M170.667,373.333V288h-21.333v85.333c0,11.782,9.551,21.333,21.333,21.333H288v-21.333H170.667z"/>
	</g>
</g>
<g>
	<g>
		<rect x="245.333" y="64" width="21.333" height="42.667"/>
	</g>
</g>
<g>
	<g>
		<rect x="298.667" y="85.333" width="21.333" height="21.333"/>
	</g>
</g>
<g>
	<g>
		<rect x="192" y="85.333" width="21.333" height="21.333"/>
	</g>
</g>
<g>
	<g>
		<rect x="245.333" y="405.333" width="21.333" height="42.667"/>
	</g>
</g>
<g>
	<g>
		<rect x="192" y="405.333" width="21.333" height="21.333"/>
	</g>
</g>
<g>
	<g>
		<rect x="298.667" y="405.333" width="21.333" height="21.333"/>
	</g>
</g>
<g>
	<g>
		<rect x="373.333" y="245.333" width="42.667" height="21.333"/>
	</g>
</g>
<g>
	<g>
		<rect x="373.333" y="138.667" width="42.667" height="21.333"/>
	</g>
</g>
<g>
	<g>
		<rect x="373.333" y="352" width="42.667" height="21.333"/>
	</g>
</g>
<g>
	<g>
		<rect x="373.333" y="298.667" width="21.333" height="21.333"/>
	</g>
</g>
<g>
	<g>
		<rect x="373.333" y="192" width="21.333" height="21.333"/>
	</g>
</g>
<g>
	<g>
		<rect x="96" y="245.333" width="42.667" height="21.333"/>
	</g>
</g>
<g>
	<g>
		<rect x="96" y="352" width="42.667" height="21.333"/>
	</g>
</g>
<g>
	<g>
		<rect x="96" y="138.667" width="42.667" height="21.333"/>
	</g>
</g>
<g>
	<g>
		<rect x="117.333" y="192" width="21.333" height="21.333"/>
	</g>
</g>
<g>
	<g>
		<rect x="117.333" y="298.667" width="21.333" height="21.333"/>
	</g>
</g>
<g>
	<g>
		<path d="M298.667,234.667h-85.333c-5.891,0-10.667,4.776-10.667,10.667V288c0,5.891,4.776,10.667,10.667,10.667h85.333
			c5.891,0,10.667-4.776,10.667-10.667v-42.667C309.333,239.442,304.558,234.667,298.667,234.667z M288,277.333h-64V256h64V277.333z
			"/>
	</g>
</g>
<g>
	<g>
		<rect x="202.667" y="320" width="106.667" height="21.333"/>
	</g>
</g>
<g>
</g>
<g>
</g>
<g>
</g>
<g>
</g>
<g>
</g>
<g>
</g>
<g>
</g>
<g>
</g>
<g>
</g>
<g>
</g>
<g>
</g>
<g>
</g>
<g>
</g>
<g>
</g>
<g>
</g>
</svg>
